<?xml version="1.0" standalone="no"?>
<!DOCTYPE svg PUBLIC "-//W3C//DTD SVG 20010904//EN"
 "http://www.w3.org/TR/2001/REC-SVG-20010904/DTD/svg10.dtd">
<svg version="1.0" xmlns="http://www.w3.org/2000/svg"
 width="208.000000pt" height="176.000000pt" viewBox="0 0 208.000000 176.000000"
 preserveAspectRatio="xMidYMid meet">

<g transform="translate(0.000000,176.000000) scale(0.100000,-0.100000)"
fill="#000000" stroke="none">
<path d="M1010 1206 c20 -7 35 -20 35 -29 0 -9 18 -29 40 -45 22 -16 58 -48
80 -71 30 -32 46 -41 72 -41 18 0 33 4 33 9 0 11 -88 97 -126 122 -50 34 -98
56 -134 63 l-35 6 35 -14z"/>
<path d="M820 1150 l-25 -22 25 16 c43 28 180 14 180 -17 0 -18 108 -97 132
-97 20 0 18 4 -16 39 -84 86 -241 129 -296 81z"/>
<path d="M805 1110 c-13 -6 -5 -7 25 -3 25 3 47 7 49 9 9 8 -55 2 -74 -6z"/>
<path d="M1010 885 c0 -69 3 -85 15 -85 12 0 15 16 15 85 0 69 -3 85 -15 85
-12 0 -15 -16 -15 -85z"/>
<path d="M1385 962 c-6 -4 -10 -42 -10 -85 0 -67 2 -77 18 -77 15 0 17 10 17
79 0 78 -6 97 -25 83z"/>
<path d="M482 937 c-36 -38 -26 -104 20 -128 20 -11 20 -10 4 12 -20 30 -21
88 0 117 20 29 3 28 -24 -1z"/>
<path d="M590 934 c0 -8 5 -12 10 -9 6 4 8 11 5 16 -9 14 -15 11 -15 -7z"/>
<path d="M666 912 c-3 -3 -6 -29 -6 -59 0 -45 3 -53 18 -53 15 0 18 6 14 29
-2 17 2 42 10 58 13 26 13 28 -8 29 -13 1 -25 -1 -28 -4z"/>
<path d="M733 905 c0 -8 4 -15 9 -15 4 0 8 4 8 9 0 6 -4 12 -8 15 -5 3 -9 -1
-9 -9z"/>
<path d="M813 913 c15 -2 27 -7 27 -10 0 -3 -13 -28 -30 -54 -25 -42 -27 -49
-12 -49 14 0 57 60 80 113 2 4 -18 6 -45 6 -29 -1 -37 -4 -20 -6z"/>
<path d="M1112 904 c-26 -18 -30 -65 -6 -88 20 -20 41 -22 25 -2 -7 8 -11 32
-9 53 3 33 6 38 28 38 21 0 25 -5 25 -27 -1 -30 19 -38 29 -13 7 19 -27 55
-52 55 -10 0 -28 -7 -40 -16z"/>
<path d="M1250 900 c-24 -24 -25 -48 -4 -78 19 -28 39 -30 24 -3 -16 30 -12
59 10 81 16 16 17 20 5 20 -8 0 -24 -9 -35 -20z"/>
<path d="M1317 900 c3 -11 9 -17 15 -14 5 3 4 12 -3 20 -16 19 -18 18 -12 -6z"/>
<path d="M1445 911 c15 -6 21 -20 25 -57 4 -38 9 -50 24 -52 17 -4 18 1 14 42
-7 56 -22 76 -57 75 -23 0 -24 -1 -6 -8z"/>
<path d="M582 843 c4 -52 28 -56 28 -4 0 30 -4 41 -16 41 -11 0 -14 -9 -12
-37z"/>
<path d="M910 810 c0 -5 5 -10 10 -10 6 0 10 5 10 10 0 6 -4 10 -10 10 -5 0
-10 -4 -10 -10z"/>
</g>
</svg>
